<svg width="33" height="14" viewBox="0 0 33 14" fill="none" xmlns="http://www.w3.org/2000/svg">
<path d="M1 6.125C0.516751 6.125 0.125 6.51675 0.125 7C0.125 7.48325 0.516751 7.875 1 7.875L1 6.125ZM32.3504 7.61872C32.6921 7.27701 32.6921 6.72299 32.3504 6.38128L26.782 0.812818C26.4403 0.471109 25.8862 0.471109 25.5445 0.812818C25.2028 1.15453 25.2028 1.70855 25.5445 2.05025L30.4943 7L25.5445 11.9497C25.2028 12.2915 25.2028 12.8455 25.5445 13.1872C25.8862 13.5289 26.4403 13.5289 26.782 13.1872L32.3504 7.61872ZM1 7.875L31.7317 7.875L31.7317 6.125L1 6.125L1 7.875Z" fill="white"/>
</svg>
