<svg width="20" height="20" viewBox="0 0 20 20" fill="none" xmlns="http://www.w3.org/2000/svg">
<path d="M15.3438 0.4375H4.65625C2.3299 0.4375 0.4375 2.3299 0.4375 4.65625V15.3438C0.4375 17.6701 2.3299 19.5625 4.65625 19.5625H15.3438C17.6701 19.5625 19.5625 17.6701 19.5625 15.3438V4.65625C19.5625 2.3299 17.6701 0.4375 15.3438 0.4375ZM10 15.2734C7.09219 15.2734 4.72656 12.9078 4.72656 10C4.72656 7.09219 7.09219 4.72656 10 4.72656C12.9078 4.72656 15.2734 7.09219 15.2734 10C15.2734 12.9078 12.9078 15.2734 10 15.2734ZM16.0469 5.00781C15.4643 5.00781 14.9922 4.53568 14.9922 3.95312C14.9922 3.37057 15.4643 2.89844 16.0469 2.89844C16.6294 2.89844 17.1016 3.37057 17.1016 3.95312C17.1016 4.53568 16.6294 5.00781 16.0469 5.00781Z" fill="black"/>
</svg>
