<svg width="36" height="36" viewBox="0 0 36 36" fill="none" xmlns="http://www.w3.org/2000/svg">
<path d="M26.5078 0H9.49219C4.2583 0 0 4.2583 0 9.49219V26.5078C0 31.7417 4.2583 36 9.49219 36H26.5078C31.7417 36 36 31.7417 36 26.5078V9.49219C36 4.2583 31.7417 0 26.5078 0ZM29.6719 23.3438C29.6719 26.833 26.833 29.6719 23.3438 29.6719H12.6562C9.16699 29.6719 6.32812 26.833 6.32812 23.3438V12.6562C6.32812 9.16699 9.16699 6.32812 12.6562 6.32812H23.3438C26.833 6.32812 29.6719 9.16699 29.6719 12.6562V23.3438Z" fill="black"/>
</svg>
