<svg width="122" height="25" viewBox="0 0 122 25" fill="none" xmlns="http://www.w3.org/2000/svg">
<path d="M3.46 14.71L3.278 10.706L12.82 0.799999H16.616L8.686 9.224L6.814 11.278L3.46 14.71ZM0.444 19V0.799999H3.824V19H0.444ZM13.132 19L6.164 10.706L8.4 8.236L17.084 19H13.132ZM24.99 19.182C23.4474 19.182 22.0954 18.8787 20.934 18.272C19.79 17.648 18.8974 16.7987 18.256 15.724C17.632 14.6493 17.32 13.4273 17.32 12.058C17.32 10.6713 17.6234 9.44933 18.23 8.392C18.854 7.31733 19.7034 6.47667 20.778 5.87C21.87 5.26333 23.1094 4.96 24.496 4.96C25.848 4.96 27.0527 5.25467 28.11 5.844C29.1674 6.43333 29.9994 7.26533 30.606 8.34C31.2127 9.41467 31.516 10.68 31.516 12.136C31.516 12.2747 31.5074 12.4307 31.49 12.604C31.49 12.7773 31.4814 12.942 31.464 13.098H19.894V10.94H29.748L28.474 11.616C28.4914 10.8187 28.3267 10.1167 27.98 9.51C27.6334 8.90333 27.1567 8.42667 26.55 8.08C25.9607 7.73333 25.276 7.56 24.496 7.56C23.6987 7.56 22.9967 7.73333 22.39 8.08C21.8007 8.42667 21.3327 8.912 20.986 9.536C20.6567 10.1427 20.492 10.862 20.492 11.694V12.214C20.492 13.046 20.6827 13.7827 21.064 14.424C21.4454 15.0653 21.9827 15.5593 22.676 15.906C23.3694 16.2527 24.1667 16.426 25.068 16.426C25.848 16.426 26.55 16.3047 27.174 16.062C27.798 15.8193 28.3527 15.438 28.838 14.918L30.58 16.92C29.956 17.648 29.1674 18.2113 28.214 18.61C27.278 18.9913 26.2034 19.182 24.99 19.182ZM35.528 24.226C34.852 24.226 34.176 24.1133 33.5 23.888C32.824 23.6627 32.2606 23.3507 31.81 22.952L33.11 20.56C33.4393 20.8547 33.812 21.0887 34.228 21.262C34.644 21.4353 35.0686 21.522 35.502 21.522C36.0913 21.522 36.568 21.3747 36.932 21.08C37.296 20.7853 37.634 20.2913 37.946 19.598L38.752 17.778L39.012 17.388L44.264 5.116H47.384L40.884 20.118C40.4506 21.158 39.9653 21.9813 39.428 22.588C38.908 23.1947 38.3186 23.6193 37.66 23.862C37.0186 24.1047 36.308 24.226 35.528 24.226ZM38.388 19.494L32.122 5.116H35.502L40.598 17.102L38.388 19.494ZM57.2932 4.96C58.4025 4.96 59.3905 5.17667 60.2572 5.61C61.1412 6.04333 61.8345 6.71067 62.3372 7.612C62.8399 8.496 63.0912 9.64 63.0912 11.044V19H59.8412V11.46C59.8412 10.2293 59.5465 9.31067 58.9572 8.704C58.3852 8.09733 57.5792 7.794 56.5392 7.794C55.7765 7.794 55.1005 7.95 54.5112 8.262C53.9219 8.574 53.4625 9.042 53.1332 9.666C52.8212 10.2727 52.6652 11.044 52.6652 11.98V19H49.4152V5.116H52.5092V8.86L51.9632 7.716C52.4485 6.832 53.1505 6.156 54.0692 5.688C55.0052 5.20267 56.0799 4.96 57.2932 4.96ZM73.4794 19.182C72.0581 19.182 70.7928 18.8787 69.6834 18.272C68.5741 17.648 67.6988 16.7987 67.0574 15.724C66.4161 14.6493 66.0954 13.4273 66.0954 12.058C66.0954 10.6713 66.4161 9.44933 67.0574 8.392C67.6988 7.31733 68.5741 6.47667 69.6834 5.87C70.7928 5.26333 72.0581 4.96 73.4794 4.96C74.9181 4.96 76.1921 5.26333 77.3014 5.87C78.4281 6.47667 79.3034 7.30867 79.9274 8.366C80.5688 9.42333 80.8894 10.654 80.8894 12.058C80.8894 13.4273 80.5688 14.6493 79.9274 15.724C79.3034 16.7987 78.4281 17.648 77.3014 18.272C76.1921 18.8787 74.9181 19.182 73.4794 19.182ZM73.4794 16.4C74.2768 16.4 74.9874 16.2267 75.6114 15.88C76.2354 15.5333 76.7208 15.0307 77.0674 14.372C77.4314 13.7133 77.6134 12.942 77.6134 12.058C77.6134 11.1567 77.4314 10.3853 77.0674 9.744C76.7208 9.08533 76.2354 8.58267 75.6114 8.236C74.9874 7.88933 74.2854 7.716 73.5054 7.716C72.7081 7.716 71.9974 7.88933 71.3734 8.236C70.7668 8.58267 70.2814 9.08533 69.9174 9.744C69.5534 10.3853 69.3714 11.1567 69.3714 12.058C69.3714 12.942 69.5534 13.7133 69.9174 14.372C70.2814 15.0307 70.7668 15.5333 71.3734 15.88C71.9974 16.2267 72.6994 16.4 73.4794 16.4ZM89.2232 19.182C87.6979 19.182 86.5192 18.792 85.6872 18.012C84.8552 17.2147 84.4392 16.0447 84.4392 14.502V2.048H87.6892V14.424C87.6892 15.0827 87.8539 15.594 88.1832 15.958C88.5299 16.322 89.0066 16.504 89.6132 16.504C90.3412 16.504 90.9479 16.3133 91.4332 15.932L92.3432 18.246C91.9619 18.558 91.4939 18.792 90.9392 18.948C90.3846 19.104 89.8126 19.182 89.2232 19.182ZM82.1512 7.82V5.22H91.4072V7.82H82.1512ZM101.086 19.182C99.5431 19.182 98.1911 18.8787 97.0297 18.272C95.8857 17.648 94.9931 16.7987 94.3517 15.724C93.7277 14.6493 93.4157 13.4273 93.4157 12.058C93.4157 10.6713 93.7191 9.44933 94.3257 8.392C94.9497 7.31733 95.7991 6.47667 96.8737 5.87C97.9657 5.26333 99.2051 4.96 100.592 4.96C101.944 4.96 103.148 5.25467 104.206 5.844C105.263 6.43333 106.095 7.26533 106.702 8.34C107.308 9.41467 107.612 10.68 107.612 12.136C107.612 12.2747 107.603 12.4307 107.586 12.604C107.586 12.7773 107.577 12.942 107.56 13.098H95.9897V10.94H105.844L104.57 11.616C104.587 10.8187 104.422 10.1167 104.076 9.51C103.729 8.90333 103.252 8.42667 102.646 8.08C102.056 7.73333 101.372 7.56 100.592 7.56C99.7944 7.56 99.0924 7.73333 98.4857 8.08C97.8964 8.42667 97.4284 8.912 97.0817 9.536C96.7524 10.1427 96.5877 10.862 96.5877 11.694V12.214C96.5877 13.046 96.7784 13.7827 97.1597 14.424C97.5411 15.0653 98.0784 15.5593 98.7717 15.906C99.4651 16.2527 100.262 16.426 101.164 16.426C101.944 16.426 102.646 16.3047 103.27 16.062C103.894 15.8193 104.448 15.438 104.934 14.918L106.676 16.92C106.052 17.648 105.263 18.2113 104.31 18.61C103.374 18.9913 102.299 19.182 101.086 19.182ZM115.024 19.182C113.862 19.182 112.744 19.0347 111.67 18.74C110.612 18.428 109.772 18.0553 109.148 17.622L110.396 15.152C111.02 15.5507 111.765 15.88 112.632 16.14C113.498 16.4 114.365 16.53 115.232 16.53C116.254 16.53 116.991 16.3913 117.442 16.114C117.91 15.8367 118.144 15.464 118.144 14.996C118.144 14.6147 117.988 14.3287 117.676 14.138C117.364 13.93 116.956 13.774 116.454 13.67C115.951 13.566 115.388 13.4707 114.764 13.384C114.157 13.2973 113.542 13.1847 112.918 13.046C112.311 12.89 111.756 12.6733 111.254 12.396C110.751 12.1013 110.344 11.7113 110.032 11.226C109.72 10.7407 109.564 10.0993 109.564 9.302C109.564 8.418 109.815 7.65533 110.318 7.014C110.82 6.35533 111.522 5.85267 112.424 5.506C113.342 5.142 114.426 4.96 115.674 4.96C116.61 4.96 117.554 5.064 118.508 5.272C119.461 5.48 120.25 5.77467 120.874 6.156L119.626 8.626C118.967 8.22733 118.3 7.95867 117.624 7.82C116.965 7.664 116.306 7.586 115.648 7.586C114.66 7.586 113.923 7.73333 113.438 8.028C112.97 8.32267 112.736 8.69533 112.736 9.146C112.736 9.562 112.892 9.874 113.204 10.082C113.516 10.29 113.923 10.4547 114.426 10.576C114.928 10.6973 115.483 10.8013 116.09 10.888C116.714 10.9573 117.329 11.07 117.936 11.226C118.542 11.382 119.097 11.5987 119.6 11.876C120.12 12.136 120.536 12.5087 120.848 12.994C121.16 13.4793 121.316 14.112 121.316 14.892C121.316 15.7587 121.056 16.5127 120.536 17.154C120.033 17.7953 119.314 18.298 118.378 18.662C117.442 19.0087 116.324 19.182 115.024 19.182Z" fill="black"/>
</svg>
