<svg width="11" height="13" viewBox="0 0 11 13" fill="none" xmlns="http://www.w3.org/2000/svg">
<path d="M5.98821 0.539556L10.5255 5.07672C10.655 5.20623 10.7261 5.37885 10.7261 5.56291C10.7261 5.74718 10.6549 5.91969 10.5255 6.04921L10.1134 6.46115C9.98411 6.59057 9.81139 6.66186 9.62723 6.66186C9.44317 6.66186 9.26462 6.59057 9.13531 6.46115L6.48257 3.81424L6.48257 12.2236C6.48257 12.6028 6.18575 12.9023 5.80649 12.9023H5.22398C4.84472 12.9023 4.51797 12.6028 4.51797 12.2236L4.51797 3.78421L1.85042 6.46105C1.72091 6.59046 1.55288 6.66176 1.36872 6.66176C1.18476 6.66176 1.01429 6.59046 0.884872 6.46105L0.474159 6.04911C0.344643 5.91959 0.274062 5.74707 0.274062 5.56281C0.274062 5.37875 0.345561 5.20613 0.475078 5.07661L5.01224 0.539454C5.14216 0.409631 5.3156 0.338234 5.49997 0.338745C5.68495 0.338336 5.85848 0.409631 5.98821 0.539556Z" fill="#EBEBEB"/>
</svg>
